<svg xmlns="http://www.w3.org/2000/svg" version="1.1" xmlns:xlink="http://www.w3.org/1999/xlink" xmlns:svgjs="http://svgjs.dev/svgjs" width="2000" height="2000" viewBox="0 0 2000 2000"><g transform="matrix(1,0,0,1,0,0)"><svg viewBox="0 0 280 280" data-background-color="#0c1d36" preserveAspectRatio="xMidYMid meet" height="2000" width="2000" xmlns="http://www.w3.org/2000/svg" xmlns:xlink="http://www.w3.org/1999/xlink"><g id="tight-bounds" transform="matrix(1,0,0,1,0,0)"><svg viewBox="0 0 280 280" height="280" width="280"><g><svg viewBox="0 0 280 280" height="280" width="280"><g><svg viewBox="0 0 280 280" height="280" width="280"><g id="textblocktransform"><svg viewBox="0 0 280 280" height="280" width="280" id="textblock"><g><svg viewBox="0 0 280 280" height="280" width="280"><g transform="matrix(1,0,0,1,57.50420886156945,57.50420886156945)"><svg viewBox="0 0 164.9915822768611 164.9915822768611" height="164.9915822768611" width="164.9915822768611"><g><circle r="82" cx="82.49579113843055" cy="82.49579113843055" fill="#f9f9f9" data-fill-palette-color="accent"></circle><svg xmlns="http://www.w3.org/2000/svg" xmlns:xlink="http://www.w3.org/1999/xlink" version="1.1" x="24.74873734152917" y="24.748737341529164" viewBox="14 2 36 60" style="enable-background:new 0 0 64 64;" xml:space="preserve" height="115.49410759380275" width="115.49410759380275" class="icon-xg-0" data-fill-palette-color="quaternary" id="xg-0"><path d="M45 36h-3v-4H14v25c0 2.8 2.2 5 5 5h18c2.8 0 5-2.2 5-5v-3h3c2.8 0 5-2.2 5-5v-8C50 38.2 47.8 36 45 36zM23.9 54.5l-1.7 1L17.8 48l4.3-7.5 1.7 1L20.2 48 23.9 54.5zM27 55.3L25 54.7l4-14 1.9 0.5L27 55.3zM33.9 55.5l-1.7-1 3.7-6.5-3.7-6.5 1.7-1 4.3 7.5L33.9 55.5zM48 49c0 1.7-1.3 3-3 3h-3V38h3c1.7 0 3 1.3 3 3V49z" fill="#0c1d36" data-fill-palette-color="quaternary"></path><g fill="#0c1d36" data-fill-palette-color="quaternary"><path d="M38 30h-2v-2c0-1.1-0.9-2-2-2H20c-2.2 0-4-1.8-4-4s1.8-4 4-4h14c1.1 0 2-0.9 2-2s-0.9-2-2-2H20c-2.2 0-4-1.8-4-4s1.8-4 4-4h14c1.1 0 2-0.9 2-2V2h2v2c0 2.2-1.8 4-4 4H20c-1.1 0-2 0.9-2 2s0.9 2 2 2h14c2.2 0 4 1.8 4 4s-1.8 4-4 4H20c-1.1 0-2 0.9-2 2s0.9 2 2 2h14c2.2 0 4 1.8 4 4V30z" fill="#0c1d36" data-fill-palette-color="quaternary"></path></g></svg></g></svg></g><g><path d="M29.194 104.716v0c-0.515 1.483-1.222 2.931-2.12 4.345-0.898 1.414-1.824 2.529-2.778 3.345v0l-5.428-2.111 0.143-0.411 3.059-0.338c0.89-0.119 1.7-0.294 2.429-0.525 0.729-0.231 1.387-0.666 1.973-1.304v0c0.462-0.446 0.828-0.903 1.097-1.373 0.268-0.463 0.51-1.006 0.727-1.63v0c0.573-1.648 0.58-3.104 0.021-4.368-0.557-1.27-1.538-2.15-2.944-2.639v0c-1.324-0.46-2.47-0.495-3.441-0.105-0.964 0.392-2.048 1.182-3.251 2.368v0l-1.303 1.409c-1.832 1.966-3.643 3.37-5.432 4.209-1.792 0.846-3.795 0.885-6.01 0.115v0c-1.591-0.553-2.826-1.442-3.705-2.668-0.871-1.23-1.362-2.688-1.474-4.374-0.106-1.684 0.183-3.513 0.869-5.486v0c0.498-1.432 1.157-2.722 1.976-3.87 0.822-1.155 1.722-2.09 2.698-2.807v0l4.776 1.928-0.143 0.41-3.613 0.606c-1.101 0.131-1.928 0.357-2.482 0.678-0.547 0.323-1.007 0.752-1.378 1.286v0c-0.23 0.312-0.416 0.611-0.557 0.897-0.148 0.284-0.302 0.654-0.462 1.113v0c-0.478 1.374-0.481 2.675-0.009 3.901 0.468 1.218 1.377 2.062 2.726 2.531v0c1.374 0.478 2.601 0.498 3.681 0.06 1.075-0.446 2.181-1.257 3.316-2.431v0l1.462-1.589c2.033-2.196 3.886-3.638 5.558-4.326 1.679-0.686 3.53-0.677 5.554 0.027v0c2.373 0.825 3.999 2.396 4.877 4.712 0.872 2.314 0.734 5.119-0.412 8.415z" fill="#f9cc0b" data-fill-palette-color="primary"></path><path d="M45.902 73.215v0c-1.034 1.295-2.271 2.087-3.71 2.377-1.443 0.295-2.857-0.11-4.241-1.216v0c-1.053-0.841-1.589-2.149-1.611-3.925-0.031-1.775 0.649-3.991 2.04-6.648v0c0.218-0.413 0.468-0.872 0.752-1.378 0.278-0.51 0.569-1.046 0.87-1.607v0l-2.645-2.113c-1.521-1.215-2.734-1.883-3.639-2.002-0.91-0.124-1.676 0.204-2.298 0.983v0c-0.429 0.537-0.596 1.102-0.501 1.695 0.094 0.584 0.532 1.261 1.313 2.032v0l0.312 0.353c0.925 0.817 1.443 1.615 1.555 2.393 0.101 0.78-0.098 1.482-0.599 2.109v0c-0.463 0.579-1.024 0.915-1.684 1.008-0.655 0.097-1.286-0.096-1.891-0.58v0c-0.916-0.732-1.432-1.666-1.55-2.803-0.116-1.128 0.088-2.344 0.613-3.649 0.526-1.295 1.281-2.559 2.265-3.791v0c1.585-1.984 3.295-3.131 5.13-3.442 1.84-0.306 3.855 0.415 6.044 2.165v0l7.397 5.91c1.005 0.803 1.882 0.736 2.631-0.201v0l0.586-0.734 0.508-0.085c0.2 0.85 0.244 1.643 0.13 2.379-0.11 0.731-0.531 1.555-1.263 2.471v0c-0.786 0.984-1.635 1.578-2.547 1.78-0.912 0.203-1.818 0.091-2.72-0.336v0c0.182 1.24 0.241 2.413 0.178 3.517-0.058 1.109-0.533 2.221-1.425 3.337zM45.491 69.536v0c0.357-0.447 0.586-0.95 0.687-1.507 0.095-0.562 0.134-1.29 0.116-2.184v0l-5.621-4.491c-0.135 0.255-0.268 0.514-0.402 0.778-0.135 0.255-0.294 0.546-0.478 0.873v0c-0.552 1.241-0.758 2.421-0.618 3.542 0.145 1.125 0.754 2.116 1.828 2.973v0c0.916 0.732 1.773 1.067 2.571 1.007 0.794-0.055 1.433-0.385 1.917-0.991z" fill="#f9cc0b" data-fill-palette-color="primary"></path><path d="M59.52 26.933v0c-0.798 0.551-1.648 0.767-2.551 0.646-0.903-0.121-1.622-0.57-2.158-1.346v0c-0.555-0.804-0.726-1.643-0.513-2.52 0.213-0.876 0.719-1.59 1.517-2.142v0c0.798-0.551 1.639-0.768 2.523-0.65 0.878 0.122 1.595 0.584 2.15 1.388v0c0.536 0.776 0.71 1.602 0.521 2.478-0.195 0.88-0.691 1.595-1.489 2.146zM76.967 43.434l-8.255 5.705-0.241-0.349 0.401-0.486c0.371-0.47 0.545-0.905 0.522-1.307-0.018-0.405-0.19-0.843-0.516-1.314v0l-7.623-11.031c-0.341-0.493-0.686-0.803-1.036-0.93-0.344-0.131-0.784-0.08-1.32 0.151v0l-0.568 0.245-0.247-0.358 5.023-6.542 0.591 0.108 3.356 5.087 6.824 9.876c0.326 0.471 0.673 0.784 1.042 0.939 0.373 0.16 0.833 0.157 1.382-0.009v0l0.423-0.134z" fill="#f9cc0b" data-fill-palette-color="primary"></path><path d="M102.894 32.737v0c-1.608 0.5-3.165 0.586-4.671 0.257-1.511-0.32-2.878-1.123-4.103-2.407-1.216-1.28-2.193-3.106-2.932-5.48v0c-0.748-2.406-0.944-4.521-0.587-6.346 0.361-1.834 1.115-3.356 2.263-4.566 1.154-1.212 2.548-2.073 4.182-2.581v0c0.958-0.298 1.901-0.489 2.827-0.572 0.935-0.079 1.803-0.032 2.605 0.142v0l-1.656-5.326c-0.178-0.573-0.396-0.967-0.653-1.183-0.266-0.221-0.702-0.297-1.309-0.228v0l-0.833 0.079-0.126-0.405 6.888-4.121 0.568 0.226 1.618 5.782 6.225 20.022c0.17 0.547 0.405 0.961 0.704 1.242 0.299 0.281 0.727 0.409 1.283 0.384v0l0.406 0.011 0.126 0.406-6.855 2.628-0.826-1.362c-0.588 0.719-1.304 1.376-2.149 1.97-0.852 0.596-1.85 1.073-2.995 1.428zM104.797 30.484v0c1.145-0.356 2.091-1.024 2.837-2.003v0l-5.055-16.259c-1.212-0.336-2.349-0.339-3.41-0.009v0c-1.312 0.408-2.197 1.512-2.653 3.312-0.463 1.802-0.189 4.327 0.821 7.575v0c1.01 3.249 2.159 5.399 3.445 6.453 1.287 1.053 2.625 1.364 4.015 0.931z" fill="#f9cc0b" data-fill-palette-color="primary"></path><path d="M170.211 31.538v0c-1.511-0.425-2.999-1.044-4.464-1.855-1.465-0.811-2.634-1.669-3.506-2.572v0l1.781-5.545 0.419 0.118 0.521 3.033c0.172 0.881 0.395 1.679 0.669 2.393 0.275 0.714 0.748 1.344 1.421 1.891v0c0.473 0.434 0.951 0.772 1.436 1.013 0.478 0.24 1.035 0.449 1.671 0.628v0c1.679 0.473 3.133 0.392 4.361-0.242 1.235-0.632 2.054-1.665 2.458-3.097v0c0.38-1.349 0.346-2.496-0.102-3.441-0.45-0.938-1.303-1.973-2.559-3.103v0l-1.484-1.216c-2.073-1.71-3.582-3.434-4.529-5.17-0.952-1.738-1.111-3.735-0.475-5.991v0c0.456-1.621 1.27-2.907 2.44-3.859 1.175-0.943 2.601-1.521 4.279-1.734 1.675-0.207 3.518-0.028 5.527 0.538v0c1.459 0.411 2.786 0.991 3.982 1.74 1.202 0.751 2.19 1.593 2.964 2.525v0l-1.637 4.882-0.419-0.118-0.821-3.569c-0.197-1.091-0.472-1.903-0.826-2.437-0.356-0.527-0.811-0.96-1.366-1.298v0c-0.326-0.211-0.635-0.378-0.93-0.503-0.292-0.131-0.671-0.263-1.138-0.394v0c-1.401-0.394-2.699-0.319-3.895 0.226-1.188 0.54-1.975 1.498-2.363 2.872v0c-0.394 1.401-0.341 2.627 0.162 3.678 0.51 1.046 1.385 2.101 2.625 3.164v0l1.674 1.364c2.314 1.897 3.865 3.66 4.652 5.288 0.785 1.635 0.888 3.483 0.307 5.545v0c-0.681 2.419-2.151 4.136-4.41 5.152-2.258 1.009-5.066 1.041-8.425 0.094z" fill="#f9cc0b" data-fill-palette-color="primary"></path><path d="M202.655 46.33v0c-1.354-0.955-2.22-2.142-2.596-3.561-0.381-1.423-0.062-2.858 0.959-4.306v0c0.776-1.101 2.05-1.715 3.822-1.843 1.77-0.137 4.023 0.409 6.759 1.637v0c0.425 0.192 0.898 0.415 1.421 0.668 0.526 0.247 1.078 0.505 1.656 0.772v0l1.951-2.766c1.122-1.591 1.715-2.842 1.78-3.753 0.069-0.916-0.304-1.661-1.119-2.235v0c-0.562-0.396-1.136-0.529-1.723-0.399-0.577 0.129-1.227 0.606-1.949 1.433v0l-0.334 0.333c-0.76 0.973-1.525 1.538-2.295 1.695-0.772 0.148-1.486-0.009-2.141-0.471v0c-0.606-0.427-0.975-0.967-1.107-1.621-0.136-0.648 0.019-1.289 0.465-1.923v0c0.675-0.958 1.577-1.53 2.705-1.715 1.119-0.184 2.345-0.053 3.679 0.394 1.325 0.448 2.631 1.126 3.92 2.034v0c2.076 1.463 3.323 3.102 3.743 4.914 0.416 1.818-0.183 3.872-1.798 6.163v0l-5.456 7.738c-0.741 1.052-0.622 1.923 0.358 2.614v0l0.768 0.541 0.115 0.502c-0.836 0.251-1.626 0.342-2.367 0.272-0.737-0.066-1.584-0.437-2.542-1.112v0c-1.03-0.726-1.673-1.538-1.93-2.436-0.257-0.898-0.199-1.81 0.173-2.735v0c-1.227 0.256-2.394 0.385-3.501 0.388-1.11 0.008-2.249-0.399-3.416-1.222zM206.302 45.699v0c0.468 0.33 0.983 0.528 1.546 0.596 0.567 0.062 1.296 0.056 2.187-0.016v0l4.146-5.88c-0.262-0.119-0.529-0.237-0.801-0.354-0.262-0.119-0.562-0.26-0.9-0.425v0c-1.272-0.476-2.462-0.611-3.572-0.404-1.114 0.212-2.067 0.88-2.859 2.002v0c-0.675 0.958-0.959 1.834-0.851 2.627 0.103 0.79 0.471 1.408 1.104 1.854z" fill="#f9cc0b" data-fill-palette-color="primary"></path><path d="M249.668 57.15v0c-0.598-0.764-0.864-1.599-0.797-2.507 0.067-0.908 0.472-1.653 1.214-2.236v0c0.769-0.603 1.597-0.824 2.485-0.663 0.887 0.16 1.63 0.622 2.228 1.386v0c0.598 0.764 0.865 1.59 0.801 2.48-0.069 0.884-0.488 1.627-1.257 2.23v0c-0.742 0.582-1.556 0.804-2.442 0.668-0.89-0.142-1.634-0.594-2.232-1.358zM234.243 75.555l-6.19-7.898 0.334-0.262 0.51 0.371c0.491 0.343 0.936 0.49 1.335 0.443 0.403-0.042 0.83-0.24 1.281-0.593v0l10.555-8.271c0.472-0.37 0.761-0.733 0.866-1.09 0.11-0.351 0.033-0.788-0.23-1.309v0l-0.278-0.552 0.342-0.268 6.831 4.622-0.072 0.596-4.877 3.655-9.449 7.404c-0.451 0.353-0.742 0.719-0.875 1.096-0.137 0.382-0.107 0.841 0.092 1.379v0l0.159 0.415z" fill="#f9cc0b" data-fill-palette-color="primary"></path><path d="M246.473 100.796v0c-0.596-1.575-0.775-3.124-0.537-4.647 0.229-1.527 0.948-2.94 2.156-4.24 1.204-1.291 2.969-2.376 5.294-3.255v0c2.357-0.891 4.457-1.213 6.3-0.967 1.852 0.25 3.417 0.912 4.694 1.985 1.279 1.079 2.222 2.419 2.827 4.019v0c0.355 0.939 0.602 1.868 0.741 2.788 0.135 0.928 0.14 1.798 0.014 2.609v0l5.217-1.973c0.561-0.212 0.941-0.453 1.142-0.723 0.204-0.279 0.254-0.719 0.149-1.321v0l-0.129-0.826 0.397-0.15 4.527 6.628-0.192 0.58-5.675 1.962-19.612 7.416c-0.536 0.203-0.935 0.461-1.197 0.777-0.262 0.315-0.365 0.75-0.306 1.304v0l0.013 0.406-0.397 0.15-3.036-6.684 1.311-0.906c-0.753-0.544-1.451-1.219-2.096-2.028-0.646-0.814-1.182-1.782-1.605-2.903zM248.836 102.561v-0.001c0.424 1.122 1.148 2.026 2.17 2.712v0l15.926-6.022c0.262-1.23 0.197-2.365-0.196-3.404v0c-0.486-1.285-1.641-2.102-3.465-2.449-1.826-0.354-4.33 0.071-7.512 1.274v0c-3.182 1.203-5.26 2.479-6.234 3.826-0.974 1.348-1.204 2.702-0.689 4.063z" fill="#f9cc0b" data-fill-palette-color="primary"></path><path d="M7.891 190.98v0c-0.556-1.575-0.929-3.248-1.118-5.017-0.189-1.769-0.161-3.308 0.085-4.617v0l5.918-1.843 0.152 0.429-2.324 2.31c-0.663 0.691-1.219 1.373-1.668 2.046-0.455 0.675-0.712 1.473-0.772 2.395v0c-0.084 0.673-0.084 1.29 0 1.854 0.087 0.569 0.246 1.181 0.477 1.835v0c0.617 1.747 1.578 2.961 2.883 3.644 1.299 0.684 2.695 0.763 4.188 0.236v0c1.404-0.496 2.375-1.224 2.914-2.186 0.545-0.964 0.925-2.338 1.139-4.121v0l0.149-2.035c0.218-2.842 0.79-5.208 1.716-7.1 0.928-1.885 2.563-3.241 4.907-4.068v0c1.69-0.597 3.304-0.677 4.844-0.242 1.542 0.442 2.915 1.325 4.118 2.65 1.212 1.329 2.187 3.039 2.926 5.129v0c0.536 1.518 0.844 3.028 0.923 4.528 0.08 1.501-0.047 2.871-0.381 4.11v0l-5.246 1.563-0.151-0.429 2.598-2.9c0.833-0.837 1.37-1.573 1.61-2.208 0.242-0.629 0.338-1.288 0.288-1.977v0c-0.018-0.415-0.061-0.789-0.128-1.122-0.065-0.327-0.184-0.735-0.357-1.224v0c-0.516-1.461-1.372-2.541-2.57-3.24-1.199-0.705-2.513-0.806-3.942-0.302v0c-1.461 0.516-2.49 1.315-3.087 2.397-0.605 1.078-0.987 2.485-1.146 4.22v0l-0.161 2.275c-0.232 3.168-0.814 5.596-1.748 7.283-0.936 1.681-2.477 2.9-4.624 3.657v0c-2.522 0.89-4.913 0.663-7.174-0.681-2.259-1.339-4.005-3.755-5.238-7.249z" fill="#f9cc0b" data-fill-palette-color="primary"></path><path d="M28.631 228.862v0c-1.105-1.368-1.644-2.833-1.617-4.396 0.027-1.564 0.771-2.936 2.233-4.118v0c1.111-0.898 2.59-1.157 4.437-0.779 1.847 0.378 3.989 1.592 6.426 3.642v0c0.378 0.318 0.799 0.684 1.263 1.097 0.465 0.404 0.954 0.827 1.467 1.27v0l2.798-2.261c1.609-1.3 2.578-2.404 2.91-3.313 0.332-0.918 0.164-1.791-0.505-2.619v0c-0.457-0.566-1-0.868-1.629-0.905-0.634-0.034-1.439 0.266-2.416 0.9v0l-0.443 0.24c-1.055 0.774-2 1.127-2.835 1.057-0.831-0.064-1.514-0.427-2.047-1.086v0c-0.495-0.613-0.717-1.274-0.667-1.982 0.051-0.708 0.396-1.321 1.036-1.838v0c0.964-0.779 2.052-1.1 3.264-0.961 1.202 0.137 2.417 0.628 3.644 1.472 1.228 0.844 2.367 1.916 3.417 3.215v0c1.698 2.101 2.495 4.138 2.391 6.11-0.1 1.977-1.308 3.902-3.623 5.773v0l-7.82 6.32c-1.064 0.86-1.195 1.784-0.396 2.774v0l0.629 0.778-0.022 0.551c-0.93 0.007-1.763-0.13-2.501-0.409-0.741-0.285-1.503-0.912-2.286-1.881v0c-0.838-1.037-1.257-2.054-1.257-3.05-0.005-0.992 0.317-1.906 0.967-2.743v0c-1.326-0.098-2.554-0.305-3.685-0.621-1.136-0.312-2.18-1.058-3.133-2.237zM32.539 229.277v0c0.381 0.472 0.852 0.823 1.411 1.055 0.56 0.232 1.304 0.44 2.233 0.625v0l5.95-4.808c-0.238-0.198-0.475-0.395-0.713-0.593-0.238-0.198-0.505-0.432-0.802-0.703v0c-1.159-0.856-2.34-1.336-3.541-1.439-1.196-0.108-2.359 0.296-3.491 1.21v0c-0.969 0.783-1.513 1.595-1.631 2.435-0.127 0.839 0.067 1.578 0.584 2.218z" fill="#f9cc0b" data-fill-palette-color="primary"></path><path d="M75.336 238.492v0c-0.85-0.583-1.384-1.346-1.603-2.289-0.219-0.943-0.045-1.828 0.523-2.656v0c0.583-0.85 1.35-1.337 2.302-1.46 0.947-0.118 1.846 0.115 2.695 0.698v0c0.85 0.583 1.384 1.334 1.604 2.252 0.21 0.92 0.023 1.805-0.56 2.656v0c-0.568 0.828-1.323 1.314-2.265 1.46-0.947 0.142-1.846-0.078-2.696-0.661zM65.577 262.053l-8.79-6.032 0.257-0.375 0.628 0.21c0.603 0.193 1.102 0.204 1.496 0.034 0.395-0.17 0.764-0.505 1.107-1.005v0l8.068-11.756c0.358-0.522 0.535-0.981 0.528-1.377-0.01-0.391-0.23-0.808-0.661-1.251v0l-0.445-0.477 0.257-0.375 8.395 2.501 0.112 0.641-3.771 5.243-7.215 10.515c-0.343 0.5-0.523 0.965-0.54 1.394-0.017 0.43 0.159 0.881 0.528 1.355v0l0.303 0.38z" fill="#f9cc0b" data-fill-palette-color="primary"></path><path d="M96.349 276.381v0c-1.706-0.527-3.121-1.388-4.247-2.582-1.128-1.188-1.842-2.709-2.143-4.565-0.301-1.856-0.061-4.045 0.719-6.568v0c0.79-2.555 1.893-4.527 3.309-5.915 1.416-1.388 2.99-2.27 4.72-2.645 1.735-0.366 3.474-0.28 5.219 0.259v0c1.01 0.312 1.947 0.715 2.81 1.207 0.872 0.488 1.605 1.046 2.201 1.674v0l1.748-5.657c0.187-0.605 0.232-1.081 0.135-1.429-0.097-0.347-0.434-0.673-1.009-0.978v0l-0.777-0.43 0.134-0.435 8.52 0.529 0.351 0.542-2.056 6.038-6.574 21.268c-0.179 0.579-0.222 1.084-0.129 1.515 0.088 0.422 0.387 0.789 0.896 1.102v0l0.345 0.255-0.134 0.434-7.583-1.815 0.09-1.696c-0.94 0.281-1.962 0.427-3.065 0.438-1.097 0.013-2.257-0.169-3.48-0.546zM99.377 275.55v0c1.216 0.376 2.446 0.357 3.687-0.055v0l5.338-17.272c-0.86-1.027-1.856-1.716-2.989-2.066v0c-1.39-0.43-2.826 0.008-4.308 1.313-1.482 1.305-2.757 3.685-3.826 7.141v0c-1.066 3.45-1.353 6.019-0.859 7.709 0.491 1.696 1.477 2.773 2.957 3.23z" fill="#f9cc0b" data-fill-palette-color="primary"></path><path d="M175.964 278.083v0c-1.61 0.447-3.304 0.705-5.082 0.772-1.778 0.068-3.311-0.065-4.6-0.399v0l-1.434-6.031 0.438-0.121 2.146 2.476c0.644 0.709 1.287 1.31 1.927 1.803 0.642 0.5 1.421 0.811 2.337 0.934v0c0.665 0.13 1.282 0.172 1.849 0.126 0.574-0.048 1.195-0.164 1.864-0.35v0c1.785-0.496 3.062-1.372 3.832-2.628 0.771-1.249 0.945-2.636 0.521-4.162v0c-0.399-1.434-1.059-2.453-1.982-3.056-0.925-0.61-2.269-1.082-4.034-1.418v0l-2.02-0.287c-2.82-0.412-5.142-1.144-6.966-2.197-1.817-1.054-3.059-2.779-3.724-5.173v0c-0.48-1.726-0.45-3.343 0.089-4.849 0.546-1.508 1.521-2.817 2.925-3.928 1.409-1.119 3.181-1.975 5.317-2.569v0c1.551-0.431 3.078-0.635 4.58-0.612 1.503 0.023 2.861 0.243 4.075 0.661v0l1.201 5.34-0.438 0.122-2.716-2.791c-0.778-0.888-1.476-1.474-2.093-1.757-0.611-0.285-1.261-0.425-1.952-0.422v0c-0.415-0.01-0.792 0.007-1.129 0.052-0.331 0.043-0.746 0.134-1.246 0.273v0c-1.493 0.415-2.629 1.196-3.408 2.342-0.786 1.148-0.975 2.453-0.569 3.913v0c0.415 1.493 1.142 2.574 2.181 3.243 1.034 0.677 2.412 1.155 4.131 1.431v0l2.259 0.316c3.145 0.447 5.527 1.194 7.146 2.241 1.613 1.048 2.724 2.669 3.334 4.862v0c0.716 2.577 0.326 4.947-1.17 7.111-1.49 2.162-4.019 3.739-7.589 4.732z" fill="#f9cc0b" data-fill-palette-color="primary"></path><path d="M215.171 259.968v0c-1.44 1.009-2.938 1.447-4.497 1.314-1.558-0.133-2.877-0.97-3.955-2.508v0c-0.82-1.169-0.978-2.663-0.476-4.48 0.503-1.817 1.86-3.871 4.072-6.162v0c0.343-0.356 0.736-0.751 1.18-1.186 0.435-0.436 0.89-0.896 1.367-1.378v0l-2.065-2.945c-1.187-1.693-2.223-2.736-3.107-3.128-0.893-0.394-1.776-0.285-2.647 0.325v0c-0.596 0.418-0.934 0.939-1.015 1.563-0.077 0.63 0.168 1.454 0.734 2.472v0l0.21 0.458c0.701 1.105 0.988 2.072 0.861 2.901-0.121 0.825-0.529 1.481-1.223 1.968v0c-0.645 0.452-1.32 0.629-2.023 0.53-0.703-0.099-1.291-0.486-1.763-1.158v0c-0.712-1.015-0.957-2.122-0.736-3.322 0.219-1.19 0.791-2.369 1.716-3.536 0.926-1.167 2.073-2.231 3.441-3.19v0c2.212-1.551 4.298-2.207 6.258-1.969 1.966 0.234 3.804 1.57 5.513 4.008v0l5.772 8.233c0.785 1.12 1.699 1.314 2.742 0.583v0l0.819-0.574 0.548 0.06c-0.057 0.928-0.249 1.75-0.579 2.466-0.334 0.72-1.012 1.438-2.032 2.153v0c-1.092 0.766-2.135 1.114-3.129 1.046-0.99-0.063-1.88-0.446-2.671-1.151v0c-0.188 1.316-0.478 2.528-0.87 3.634-0.389 1.112-1.204 2.103-2.445 2.973zM215.851 256.098v0c0.496-0.348 0.879-0.793 1.149-1.336 0.269-0.543 0.528-1.271 0.775-2.186v0l-4.391-6.263c-0.213 0.224-0.427 0.447-0.64 0.671-0.213 0.224-0.465 0.474-0.756 0.752v0c-0.933 1.098-1.492 2.243-1.677 3.435-0.189 1.186 0.134 2.374 0.969 3.565v0c0.715 1.02 1.488 1.618 2.319 1.793 0.829 0.184 1.579 0.04 2.252-0.431z" fill="#f9cc0b" data-fill-palette-color="primary"></path><path d="M227.959 214.026v0c-0.64 0.808-1.437 1.289-2.393 1.444-0.956 0.154-1.827-0.08-2.614-0.703v0c-0.808-0.64-1.241-1.438-1.3-2.395-0.053-0.953 0.24-1.833 0.88-2.642v0c0.64-0.808 1.425-1.29 2.356-1.446 0.932-0.147 1.803 0.1 2.611 0.739v0c0.787 0.623 1.221 1.409 1.303 2.359 0.077 0.955-0.204 1.836-0.843 2.644zM250.8 225.368l-6.617 8.359-0.356-0.282 0.252-0.612c0.234-0.588 0.279-1.085 0.136-1.491-0.143-0.405-0.452-0.796-0.927-1.172v0l-11.179-8.85c-0.496-0.393-0.943-0.6-1.339-0.621-0.39-0.017-0.821 0.175-1.292 0.574v0l-0.506 0.412-0.357-0.283 3.067-8.204 0.647-0.068 4.975 4.119 9.998 7.915c0.475 0.376 0.927 0.588 1.354 0.633 0.427 0.046 0.89-0.099 1.388-0.434v0l0.4-0.277z" fill="#f9cc0b" data-fill-palette-color="primary"></path><path d="M267.188 195.643v0c-0.642 1.666-1.597 3.019-2.865 4.061-1.262 1.044-2.829 1.653-4.7 1.826-1.872 0.174-4.04-0.215-6.504-1.164v0c-2.495-0.962-4.387-2.197-5.676-3.705-1.289-1.508-2.061-3.138-2.317-4.89-0.247-1.756-0.042-3.486 0.614-5.188v0c0.38-0.987 0.846-1.894 1.396-2.722 0.546-0.836 1.153-1.53 1.821-2.081v0l-5.525-2.131c-0.591-0.228-1.063-0.305-1.416-0.232-0.353 0.073-0.701 0.387-1.045 0.941v0l-0.482 0.745-0.424-0.164 1.108-8.464 0.565-0.313 5.883 2.464 20.771 8.008c0.566 0.218 1.066 0.296 1.502 0.233 0.427-0.059 0.814-0.332 1.161-0.82v0l0.277-0.326 0.425 0.164-2.328 7.441-1.686-0.206c0.216 0.957 0.292 1.986 0.228 3.088-0.061 1.095-0.322 2.24-0.783 3.435zM266.566 192.566v0c0.458-1.188 0.523-2.415 0.196-3.683v0l-16.867-6.503c-1.084 0.788-1.839 1.735-2.265 2.841v0c-0.523 1.358-0.185 2.82 1.016 4.388 1.201 1.568 3.489 3.002 6.864 4.303v0c3.369 1.299 5.913 1.76 7.632 1.384 1.726-0.374 2.867-1.284 3.424-2.731z" fill="#f9cc0b" data-fill-palette-color="primary"></path><path d="M7.787 143.778c0-1.902 1.542-3.444 3.444-3.444 1.902 0 3.444 1.542 3.444 3.444 0 1.902-1.542 3.444-3.444 3.444-1.902 0-3.444-1.542-3.444-3.444z" fill="#f9cc0b" data-fill-palette-color="primary"></path><path d="M262.433 143.778c0-1.902 1.542-3.444 3.444-3.444 1.902 0 3.444 1.542 3.444 3.444 0 1.902-1.542 3.444-3.444 3.444-1.902 0-3.444-1.542-3.444-3.444z" fill="#f9cc0b" data-fill-palette-color="primary"></path></g></svg></g></svg></g></svg></g><g></g></svg></g><defs></defs></svg><rect width="280" height="280" fill="none" stroke="none" visibility="hidden"></rect></g></svg></g></svg>